<svg xmlns="http://www.w3.org/2000/svg" xmlns:xlink="http://www.w3.org/1999/xlink" width="500" zoomAndPan="magnify" viewBox="0 0 375 374.999991" height="500" preserveAspectRatio="xMidYMid meet" version="1.0"><defs><clipPath id="da06c5c513"><path d="M 15.164062 41.445312 L 360 41.445312 L 360 333.195312 L 15.164062 333.195312 Z M 15.164062 41.445312 " clip-rule="nonzero"/></clipPath></defs><g clip-path="url(#da06c5c513)"><path fill="#333233" d="M 172.519531 41.445312 C 164.328125 41.445312 157.539062 48.234375 157.539062 56.425781 L 157.539062 93.875 L 50.195312 93.875 C 31.121094 93.875 15.234375 109 15.234375 127.8125 L 15.234375 299.609375 C 15.234375 318.421875 31.121094 333.546875 50.195312 333.546875 L 324.804688 333.546875 C 343.878906 333.546875 359.765625 318.421875 359.765625 299.609375 L 359.765625 127.8125 C 359.765625 109 343.878906 93.875 324.804688 93.875 L 224.949219 93.875 L 224.949219 56.425781 C 224.949219 48.234375 218.160156 41.445312 209.96875 41.445312 Z M 172.519531 56.425781 L 209.96875 56.425781 L 209.96875 100.105469 C 209.824219 100.925781 209.824219 101.742188 209.96875 102.535156 L 209.96875 116.34375 L 172.519531 116.34375 L 172.519531 102.621094 C 172.667969 101.800781 172.667969 100.984375 172.519531 100.191406 Z M 50.195312 108.851562 L 157.539062 108.851562 L 157.539062 116.34375 C 157.539062 124.535156 164.328125 131.324219 172.519531 131.324219 L 209.96875 131.324219 C 218.160156 131.324219 224.949219 124.535156 224.949219 116.34375 L 224.949219 108.851562 L 324.804688 108.851562 C 336.066406 108.851562 344.785156 117.394531 344.785156 127.8125 L 344.785156 299.609375 C 344.785156 310.023438 336.066406 318.566406 324.804688 318.566406 L 50.195312 318.566406 C 38.933594 318.566406 30.214844 310.023438 30.214844 299.609375 L 30.214844 127.8125 C 30.214844 117.394531 38.933594 108.851562 50.195312 108.851562 Z M 112.308594 138.8125 C 97.007812 138.8125 85.453125 145.921875 80.59375 156.601562 C 76.234375 166.167969 76.851562 177.375 79.335938 188.695312 C 77.816406 191.269531 76.820312 194.285156 77.257812 198.058594 C 77.816406 202.445312 79.015625 205.988281 81.210938 208.765625 C 81.882812 209.644531 82.992188 209.585938 83.8125 210.230469 C 84.542969 213.328125 85.277344 216.460938 86.5625 219.003906 C 87.441406 220.761719 88.40625 222.371094 89.460938 223.804688 C 89.578125 223.980469 89.839844 224.097656 89.929688 224.242188 C 89.957031 226.90625 89.957031 229.507812 89.78125 232.199219 C 89.285156 233.195312 88.171875 234.511719 84.835938 236.148438 C 81.238281 237.933594 76.058594 239.71875 70.589844 242.03125 C 65.089844 244.371094 59.207031 247.355469 54.261719 252.300781 C 49.347656 257.246094 45.75 264.414062 45.195312 273.160156 C 45.195312 273.335938 45.195312 273.480469 45.195312 273.628906 L 45.195312 281.117188 C 45.195312 285.242188 48.558594 288.609375 52.683594 288.609375 L 172.519531 288.609375 C 176.644531 288.609375 180.011719 285.242188 180.011719 281.117188 L 180.011719 273.628906 C 180.011719 273.480469 180.011719 273.335938 180.011719 273.160156 C 179.453125 264.414062 175.886719 257.273438 170.96875 252.328125 C 166.054688 247.355469 160.175781 244.402344 154.730469 242.03125 C 149.261719 239.691406 144.082031 237.933594 140.511719 236.148438 C 137.207031 234.511719 136.066406 233.195312 135.570312 232.199219 C 135.394531 229.480469 135.394531 226.90625 135.421875 224.214844 C 135.539062 224.039062 135.804688 223.890625 135.890625 223.746094 C 136.972656 222.28125 137.910156 220.703125 138.785156 218.945312 C 140.015625 216.402344 140.6875 213.269531 141.390625 210.199219 C 142.238281 209.585938 143.320312 209.613281 143.996094 208.765625 C 146.1875 205.988281 147.386719 202.445312 147.945312 198.058594 C 148.382812 194.226562 147.359375 191.183594 145.808594 188.609375 C 147.328125 183.222656 149.261719 176.640625 148.617188 168.421875 C 148.238281 163.386719 146.949219 158.0625 143.585938 153.441406 C 140.542969 149.226562 135.453125 146.273438 129.542969 145.015625 C 124.917969 140.800781 118.890625 138.8125 112.308594 138.8125 Z M 112.308594 153.792969 C 117.957031 153.792969 120.355469 155.722656 120.238281 155.546875 C 121.410156 157.535156 123.425781 158.910156 125.710938 159.234375 C 129.132812 159.703125 130.359375 160.726562 131.472656 162.246094 C 132.585938 163.769531 133.433594 166.34375 133.667969 169.589844 C 134.195312 176.085938 132.203125 184.628906 130.976562 188.316406 C 129.980469 191.242188 130.886719 194.460938 133.257812 196.417969 C 133.285156 196.507812 133.082031 196.097656 133.050781 196.273438 C 132.789062 198.410156 132.4375 198.847656 132.378906 198.992188 C 129.71875 199.988281 127.84375 202.386719 127.550781 205.195312 C 127.347656 207.1875 126.410156 210.140625 125.328125 212.335938 C 124.773438 213.445312 124.1875 214.382812 123.808594 214.910156 C 123.542969 215.261719 123.484375 215.261719 123.75 215.085938 C 121.640625 216.460938 120.382812 218.832031 120.382812 221.316406 C 120.382812 225.765625 120.207031 229.65625 120.707031 235.214844 C 120.765625 235.859375 120.910156 236.53125 121.144531 237.144531 C 123.542969 243.523438 128.867188 247.09375 133.84375 249.550781 C 138.816406 252.035156 144.082031 253.792969 148.820312 255.8125 C 153.5625 257.828125 157.597656 260.113281 160.320312 262.863281 C 162.925781 265.464844 164.445312 268.539062 164.855469 273.628906 L 60.347656 273.628906 C 60.757812 268.566406 62.28125 265.496094 64.914062 262.863281 C 67.605469 260.113281 71.730469 257.859375 76.46875 255.839844 C 81.210938 253.792969 86.503906 252.035156 91.507812 249.550781 C 96.480469 247.09375 101.835938 243.523438 104.207031 237.144531 C 104.46875 236.53125 104.613281 235.859375 104.671875 235.214844 C 105.171875 229.65625 104.996094 225.765625 104.996094 221.316406 C 104.996094 218.773438 103.679688 216.402344 101.542969 215.027344 C 101.863281 215.230469 101.746094 215.230469 101.484375 214.851562 C 101.074219 214.324219 100.488281 213.386719 99.933594 212.277344 C 98.820312 210.054688 97.855469 207.128906 97.652344 205.195312 C 97.328125 202.386719 95.488281 199.988281 92.824219 198.992188 C 92.765625 198.847656 92.414062 198.4375 92.152344 196.273438 C 92.121094 196.007812 91.828125 196.535156 91.886719 196.476562 C 94.140625 194.632812 95.136719 191.621094 94.375 188.785156 C 91.59375 178.046875 91.652344 168.480469 94.230469 162.804688 C 96.804688 157.15625 100.929688 153.792969 112.308594 153.792969 Z M 194.988281 161.28125 L 194.988281 176.261719 L 329.804688 176.261719 L 329.804688 161.28125 Z M 194.988281 191.242188 L 194.988281 206.21875 L 299.847656 206.21875 L 299.847656 191.242188 Z M 194.988281 221.199219 L 194.988281 236.179688 L 277.378906 236.179688 L 277.378906 221.199219 Z M 194.988281 251.160156 L 194.988281 266.140625 L 299.847656 266.140625 L 299.847656 251.160156 Z M 194.988281 251.160156 " fill-opacity="1" fill-rule="nonzero"/></g></svg>