<svg xmlns="http://www.w3.org/2000/svg" xmlns:xlink="http://www.w3.org/1999/xlink" width="500" zoomAndPan="magnify" viewBox="0 0 375 374.999991" height="500" preserveAspectRatio="xMidYMid meet" version="1.0"><defs><clipPath id="98908528cb"><path d="M 36.015625 36.015625 L 339 36.015625 L 339 339 L 36.015625 339 Z M 36.015625 36.015625 " clip-rule="nonzero"/></clipPath></defs><g clip-path="url(#98908528cb)"><path fill="#333233" d="M 329.941406 144.863281 L 299.570312 141.648438 C 299.4375 141.324219 299.300781 140.996094 299.167969 140.671875 L 318.371094 116.921875 C 321.617188 112.910156 321.3125 107.082031 317.65625 103.433594 L 271.5625 57.335938 C 267.898438 53.667969 262.085938 53.371094 258.070312 56.625 L 234.324219 75.828125 C 233.996094 75.691406 233.675781 75.5625 233.351562 75.425781 L 230.136719 45.046875 C 229.589844 39.910156 225.257812 36.015625 220.089844 36.015625 L 154.902344 36.015625 C 149.734375 36.015625 145.40625 39.910156 144.859375 45.046875 L 141.644531 75.425781 C 141.316406 75.550781 140.996094 75.691406 140.671875 75.828125 L 116.921875 56.625 C 112.90625 53.371094 107.089844 53.667969 103.433594 57.335938 L 57.335938 103.433594 C 53.683594 107.082031 53.378906 112.910156 56.621094 116.921875 L 75.828125 140.671875 C 75.695312 140.996094 75.558594 141.324219 75.425781 141.648438 L 45.054688 144.863281 C 39.914062 145.40625 36.015625 149.734375 36.015625 154.902344 L 36.015625 220.089844 C 36.015625 225.257812 39.914062 229.589844 45.054688 230.132812 L 75.425781 233.347656 C 75.558594 233.671875 75.695312 233.996094 75.828125 234.324219 L 56.621094 258.070312 C 53.378906 262.085938 53.683594 267.914062 57.335938 271.5625 L 103.433594 317.65625 C 107.089844 321.316406 112.90625 321.613281 116.921875 318.367188 L 140.671875 299.167969 C 140.996094 299.304688 141.316406 299.441406 141.644531 299.570312 L 144.859375 329.945312 C 145.40625 335.085938 149.734375 338.980469 154.902344 338.980469 L 220.089844 338.980469 C 225.257812 338.980469 229.589844 335.085938 230.136719 329.945312 L 233.351562 299.570312 C 233.675781 299.433594 233.996094 299.304688 234.324219 299.167969 L 258.070312 318.367188 C 262.085938 321.613281 267.898438 321.316406 271.5625 317.65625 L 317.65625 271.5625 C 321.3125 267.914062 321.617188 262.085938 318.371094 258.070312 L 299.167969 234.324219 C 299.300781 233.996094 299.4375 233.671875 299.570312 233.347656 L 329.941406 230.132812 C 335.078125 229.589844 338.980469 225.257812 338.980469 220.089844 L 338.980469 154.902344 C 338.980469 149.734375 335.078125 145.40625 329.941406 144.863281 Z M 318.78125 211.007812 L 291.277344 213.917969 C 287.386719 214.324219 284.085938 216.945312 282.800781 220.632812 C 281.539062 224.261719 280.023438 227.894531 278.3125 231.421875 C 276.605469 234.945312 277.089844 239.136719 279.546875 242.183594 L 296.953125 263.703125 L 263.707031 296.945312 L 242.183594 279.550781 C 239.136719 277.074219 234.945312 276.613281 231.429688 278.316406 C 227.84375 280.054688 224.21875 281.550781 220.660156 282.785156 C 216.960938 284.066406 214.332031 287.371094 213.917969 291.265625 L 211.003906 318.78125 L 163.992188 318.78125 L 161.078125 291.265625 C 160.664062 287.371094 158.035156 284.066406 154.335938 282.785156 C 150.757812 281.550781 147.136719 280.042969 143.570312 278.316406 C 140.054688 276.613281 135.863281 277.074219 132.8125 279.550781 L 111.289062 296.945312 L 78.042969 263.703125 L 95.449219 242.183594 C 97.90625 239.136719 98.386719 234.945312 96.683594 231.421875 C 94.96875 227.890625 93.457031 224.261719 92.195312 220.632812 C 90.90625 216.945312 87.609375 214.320312 83.71875 213.917969 L 56.210938 211.007812 L 56.210938 163.984375 L 83.71875 161.078125 C 87.609375 160.671875 90.90625 158.050781 92.195312 154.359375 C 93.457031 150.730469 94.96875 147.101562 96.683594 143.570312 C 98.386719 140.050781 97.90625 135.859375 95.449219 132.8125 L 78.042969 111.292969 L 111.289062 78.046875 L 132.8125 95.445312 C 135.863281 97.917969 140.054688 98.394531 143.570312 96.675781 C 147.136719 94.949219 150.753906 93.441406 154.335938 92.210938 C 158.035156 90.925781 160.664062 87.625 161.078125 83.726562 L 163.992188 56.210938 L 211.003906 56.210938 L 213.917969 83.726562 C 214.332031 87.625 216.960938 90.925781 220.660156 92.210938 C 224.21875 93.441406 227.84375 94.941406 231.429688 96.675781 C 234.945312 98.394531 239.136719 97.917969 242.183594 95.445312 L 263.707031 78.046875 L 296.953125 111.292969 L 279.546875 132.8125 C 277.089844 135.859375 276.605469 140.050781 278.3125 143.570312 C 280.023438 147.101562 281.539062 150.730469 282.800781 154.359375 C 284.085938 158.046875 287.386719 160.671875 291.277344 161.078125 L 318.78125 163.984375 Z M 318.78125 211.007812 " fill-opacity="1" fill-rule="nonzero"/></g><path fill="#333233" d="M 187.496094 104.992188 C 142.003906 104.992188 104.996094 142.003906 104.996094 187.496094 C 104.996094 232.992188 142.003906 270.003906 187.496094 270.003906 C 232.992188 270.003906 270 232.992188 270 187.496094 C 270 142.003906 232.992188 104.992188 187.496094 104.992188 Z M 187.496094 249.804688 C 153.140625 249.804688 125.191406 221.855469 125.191406 187.496094 C 125.191406 153.136719 153.140625 125.1875 187.496094 125.1875 C 221.851562 125.1875 249.800781 153.136719 249.800781 187.496094 C 249.800781 221.855469 221.851562 249.804688 187.496094 249.804688 Z M 187.496094 249.804688 " fill-opacity="1" fill-rule="nonzero"/></svg>