<svg xmlns="http://www.w3.org/2000/svg" xmlns:xlink="http://www.w3.org/1999/xlink" width="500" zoomAndPan="magnify" viewBox="0 0 375 374.999991" height="500" preserveAspectRatio="xMidYMid meet" version="1.0"><defs><clipPath id="2e5af3625f"><path d="M 29.222656 29.222656 L 345.722656 29.222656 L 345.722656 345.722656 L 29.222656 345.722656 Z M 29.222656 29.222656 " clip-rule="nonzero"/></clipPath></defs><g clip-path="url(#2e5af3625f)"><path fill="#333233" d="M 187.496094 29.222656 C 100.226562 29.222656 29.222656 100.226562 29.222656 187.496094 C 29.222656 274.765625 100.226562 345.769531 187.496094 345.769531 C 274.765625 345.769531 345.769531 274.765625 345.769531 187.496094 C 345.769531 100.226562 274.765625 29.222656 187.496094 29.222656 Z M 98.605469 293.550781 C 100.078125 245.742188 139.332031 207.28125 187.496094 207.28125 C 235.660156 207.28125 274.914062 245.742188 276.386719 293.550781 C 252.308594 313.757812 221.316406 325.984375 187.496094 325.984375 C 153.675781 325.984375 122.683594 313.757812 98.605469 293.550781 Z M 138.035156 138.035156 C 138.035156 110.761719 160.222656 88.574219 187.496094 88.574219 C 214.769531 88.574219 236.957031 110.761719 236.957031 138.035156 C 236.957031 165.308594 214.769531 187.496094 187.496094 187.496094 C 160.222656 187.496094 138.035156 165.308594 138.035156 138.035156 Z M 294.269531 275.585938 C 287.109375 238.609375 261.171875 208.339844 226.816406 194.953125 C 244.871094 182.449219 256.742188 161.609375 256.742188 138.035156 C 256.742188 99.863281 225.667969 68.789062 187.496094 68.789062 C 149.320312 68.789062 118.25 99.863281 118.25 138.035156 C 118.25 161.609375 130.121094 182.449219 148.175781 194.964844 C 113.820312 208.347656 87.882812 238.617188 80.710938 275.59375 C 60.917969 251.636719 49.007812 220.929688 49.007812 187.496094 C 49.007812 111.128906 111.128906 49.007812 187.496094 49.007812 C 263.863281 49.007812 325.984375 111.128906 325.984375 187.496094 C 325.984375 220.929688 314.074219 251.636719 294.269531 275.585938 Z M 294.269531 275.585938 " fill-opacity="1" fill-rule="nonzero"/></g></svg>