<svg xmlns="http://www.w3.org/2000/svg" xmlns:xlink="http://www.w3.org/1999/xlink" width="500" zoomAndPan="magnify" viewBox="0 0 375 374.999991" height="500" preserveAspectRatio="xMidYMid meet" version="1.0"><defs><clipPath id="35c842b6cc"><path d="M 55.285156 55.285156 L 320 55.285156 L 320 320 L 55.285156 320 Z M 55.285156 55.285156 " clip-rule="nonzero"/></clipPath></defs><g clip-path="url(#35c842b6cc)"><path fill="#333233" d="M 187.382812 55.207031 C 114.382812 55.207031 55.207031 114.382812 55.207031 187.382812 C 55.207031 260.378906 114.382812 319.554688 187.382812 319.554688 C 260.378906 319.554688 319.554688 260.378906 319.554688 187.382812 C 319.554688 114.382812 260.378906 55.207031 187.382812 55.207031 Z M 218.761719 257.855469 C 211.96875 260.539062 206.546875 262.574219 202.507812 263.980469 C 198.464844 265.386719 193.769531 266.085938 188.414062 266.085938 C 180.195312 266.085938 173.800781 264.074219 169.242188 260.074219 C 164.683594 256.058594 162.402344 250.972656 162.402344 244.796875 C 162.402344 242.40625 162.566406 239.949219 162.910156 237.445312 C 163.257812 234.9375 163.808594 232.113281 164.5625 228.957031 L 173.050781 198.921875 C 173.804688 196.046875 174.445312 193.320312 174.960938 190.746094 C 175.480469 188.183594 175.734375 185.828125 175.734375 183.707031 C 175.734375 179.871094 174.9375 177.1875 173.359375 175.679688 C 171.777344 174.175781 168.761719 173.414062 164.28125 173.414062 C 162.085938 173.414062 159.832031 173.765625 157.535156 174.445312 C 155.226562 175.125 153.253906 175.785156 151.597656 176.398438 L 153.867188 167.136719 C 159.425781 164.875 164.738281 162.9375 169.820312 161.328125 C 174.902344 159.714844 179.703125 158.90625 184.25 158.90625 C 192.410156 158.90625 198.710938 160.878906 203.136719 164.828125 C 207.558594 168.777344 209.769531 173.894531 209.769531 180.203125 C 209.769531 181.507812 209.625 183.808594 209.3125 187.09375 C 209.007812 190.386719 208.4375 193.40625 207.613281 196.152344 L 199.164062 226.0625 C 198.46875 228.46875 197.847656 231.214844 197.304688 234.304688 C 196.746094 237.375 196.480469 239.71875 196.480469 241.292969 C 196.480469 245.265625 197.367188 247.980469 199.140625 249.421875 C 200.929688 250.863281 204.011719 251.578125 208.382812 251.578125 C 210.4375 251.578125 212.777344 251.214844 215.375 250.496094 C 217.96875 249.78125 219.855469 249.152344 221.027344 248.601562 Z M 217.257812 136.34375 C 213.320312 140.015625 208.574219 141.855469 203.023438 141.855469 C 197.457031 141.855469 192.699219 140.015625 188.71875 136.34375 C 184.742188 132.683594 182.75 128.234375 182.75 123.023438 C 182.75 117.820312 184.742188 113.363281 188.71875 109.65625 C 192.691406 105.953125 197.457031 104.105469 203.023438 104.105469 C 208.574219 104.105469 213.320312 105.960938 217.257812 109.65625 C 221.207031 113.363281 223.167969 117.820312 223.167969 123.023438 C 223.167969 128.234375 221.207031 132.683594 217.257812 136.34375 Z M 217.257812 136.34375 " fill-opacity="1" fill-rule="nonzero"/></g></svg>