<svg xmlns="http://www.w3.org/2000/svg" xmlns:xlink="http://www.w3.org/1999/xlink" width="500" zoomAndPan="magnify" viewBox="0 0 375 374.999991" height="500" preserveAspectRatio="xMidYMid meet" version="1.0"><defs><clipPath id="f9d834e919"><path d="M 11.0625 12.203125 L 233.28125 12.203125 L 233.28125 234.421875 L 11.0625 234.421875 Z M 11.0625 12.203125 " clip-rule="nonzero"/></clipPath><clipPath id="75fe11b62e"><path d="M 145.007812 167.402344 L 363.480469 167.402344 L 363.480469 363 L 145.007812 363 Z M 145.007812 167.402344 " clip-rule="nonzero"/></clipPath></defs><g clip-path="url(#f9d834e919)"><path fill="#333233" d="M 122.183594 12.203125 C 120.363281 12.203125 118.546875 12.25 116.730469 12.339844 C 114.914062 12.429688 113.101562 12.5625 111.289062 12.738281 C 109.480469 12.917969 107.675781 13.140625 105.878906 13.40625 C 104.078125 13.675781 102.289062 13.984375 100.503906 14.339844 C 98.71875 14.695312 96.945312 15.09375 95.183594 15.535156 C 93.417969 15.976562 91.667969 16.460938 89.925781 16.988281 C 88.1875 17.515625 86.460938 18.085938 84.746094 18.699219 C 83.035156 19.3125 81.339844 19.96875 79.660156 20.664062 C 77.980469 21.359375 76.316406 22.097656 74.671875 22.875 C 73.027344 23.652344 71.40625 24.46875 69.800781 25.324219 C 68.199219 26.183594 66.617188 27.078125 65.054688 28.015625 C 63.496094 28.949219 61.960938 29.921875 60.449219 30.933594 C 58.9375 31.941406 57.449219 32.988281 55.988281 34.070312 C 54.527344 35.15625 53.09375 36.273438 51.6875 37.425781 C 50.285156 38.582031 48.90625 39.769531 47.558594 40.988281 C 46.210938 42.210938 44.894531 43.464844 43.609375 44.75 C 42.324219 46.035156 41.070312 47.351562 39.847656 48.699219 C 38.628906 50.046875 37.441406 51.425781 36.285156 52.832031 C 35.132812 54.234375 34.015625 55.667969 32.929688 57.128906 C 31.847656 58.589844 30.800781 60.078125 29.789062 61.589844 C 28.78125 63.101562 27.808594 64.636719 26.871094 66.195312 C 25.9375 67.757812 25.042969 69.339844 24.183594 70.941406 C 23.328125 72.546875 22.507812 74.171875 21.730469 75.8125 C 20.953125 77.457031 20.21875 79.121094 19.523438 80.800781 C 18.824219 82.480469 18.171875 84.175781 17.558594 85.886719 C 16.945312 87.601562 16.375 89.328125 15.847656 91.066406 C 15.320312 92.808594 14.835938 94.558594 14.394531 96.324219 C 13.953125 98.085938 13.554688 99.863281 13.199219 101.644531 C 12.84375 103.429688 12.535156 105.21875 12.265625 107.019531 C 12 108.816406 11.777344 110.621094 11.597656 112.429688 C 11.421875 114.242188 11.285156 116.054688 11.199219 117.871094 C 11.109375 119.6875 11.0625 121.503906 11.0625 123.324219 C 11.0625 125.140625 11.109375 126.960938 11.199219 128.777344 C 11.285156 130.589844 11.421875 132.40625 11.597656 134.214844 C 11.777344 136.023438 12 137.828125 12.265625 139.628906 C 12.535156 141.425781 12.84375 143.21875 13.199219 145 C 13.554688 146.785156 13.953125 148.558594 14.394531 150.324219 C 14.835938 152.085938 15.320312 153.839844 15.847656 155.578125 C 16.375 157.320312 16.945312 159.046875 17.558594 160.757812 C 18.171875 162.46875 18.824219 164.167969 19.523438 165.847656 C 20.21875 167.527344 20.953125 169.1875 21.730469 170.832031 C 22.507812 172.476562 23.328125 174.101562 24.183594 175.703125 C 25.042969 177.308594 25.9375 178.890625 26.871094 180.449219 C 27.808594 182.007812 28.78125 183.546875 29.789062 185.058594 C 30.800781 186.570312 31.847656 188.054688 32.929688 189.515625 C 34.015625 190.976562 35.132812 192.410156 36.285156 193.816406 C 37.441406 195.222656 38.628906 196.597656 39.847656 197.945312 C 41.070312 199.292969 42.324219 200.609375 43.609375 201.894531 C 44.894531 203.179688 46.210938 204.433594 47.558594 205.65625 C 48.90625 206.878906 50.285156 208.066406 51.6875 209.21875 C 53.09375 210.371094 54.527344 211.492188 55.988281 212.574219 C 57.449219 213.65625 58.9375 214.703125 60.449219 215.714844 C 61.960938 216.726562 63.496094 217.699219 65.054688 218.632812 C 66.617188 219.566406 68.199219 220.464844 69.800781 221.320312 C 71.40625 222.179688 73.027344 222.996094 74.671875 223.773438 C 76.316406 224.550781 77.980469 225.285156 79.660156 225.984375 C 81.339844 226.679688 83.035156 227.332031 84.746094 227.945312 C 86.460938 228.558594 88.1875 229.128906 89.925781 229.65625 C 91.667969 230.183594 93.417969 230.667969 95.183594 231.109375 C 96.945312 231.554688 98.71875 231.953125 100.503906 232.304688 C 102.289062 232.660156 104.078125 232.972656 105.878906 233.238281 C 107.675781 233.503906 109.480469 233.726562 111.289062 233.90625 C 113.101562 234.085938 114.914062 234.21875 116.730469 234.308594 C 118.546875 234.398438 120.363281 234.441406 122.183594 234.441406 C 124 234.441406 125.816406 234.398438 127.632812 234.308594 C 129.449219 234.21875 131.261719 234.085938 133.074219 233.90625 C 134.882812 233.726562 136.6875 233.503906 138.484375 233.238281 C 140.285156 232.972656 142.078125 232.660156 143.859375 232.304688 C 145.644531 231.953125 147.417969 231.554688 149.179688 231.109375 C 150.945312 230.667969 152.699219 230.183594 154.4375 229.65625 C 156.179688 229.128906 157.902344 228.558594 159.617188 227.945312 C 161.328125 227.332031 163.023438 226.679688 164.703125 225.984375 C 166.386719 225.285156 168.046875 224.550781 169.691406 223.773438 C 171.335938 222.996094 172.957031 222.179688 174.5625 221.320312 C 176.167969 220.464844 177.75 219.566406 179.308594 218.632812 C 180.867188 217.699219 182.402344 216.726562 183.914062 215.714844 C 185.429688 214.703125 186.914062 213.65625 188.375 212.574219 C 189.835938 211.492188 191.269531 210.371094 192.675781 209.21875 C 194.082031 208.066406 195.457031 206.878906 196.804688 205.65625 C 198.152344 204.433594 199.46875 203.179688 200.753906 201.894531 C 202.039062 200.609375 203.292969 199.292969 204.515625 197.945312 C 205.738281 196.597656 206.921875 195.222656 208.078125 193.816406 C 209.230469 192.410156 210.351562 190.976562 211.433594 189.515625 C 212.515625 188.054688 213.5625 186.570312 214.574219 185.058594 C 215.582031 183.546875 216.554688 182.007812 217.492188 180.449219 C 218.425781 178.890625 219.320312 177.308594 220.179688 175.703125 C 221.035156 174.101562 221.855469 172.476562 222.632812 170.832031 C 223.410156 169.1875 224.144531 167.527344 224.839844 165.847656 C 225.539062 164.167969 226.191406 162.46875 226.804688 160.757812 C 227.417969 159.046875 227.988281 157.320312 228.515625 155.578125 C 229.042969 153.839844 229.527344 152.085938 229.96875 150.324219 C 230.410156 148.558594 230.808594 146.785156 231.164062 145 C 231.519531 143.21875 231.832031 141.425781 232.097656 139.628906 C 232.363281 137.828125 232.585938 136.023438 232.765625 134.214844 C 232.941406 132.40625 233.078125 130.589844 233.167969 128.777344 C 233.253906 126.960938 233.300781 125.140625 233.300781 123.324219 C 233.296875 121.503906 233.253906 119.6875 233.160156 117.871094 C 233.070312 116.054688 232.933594 114.242188 232.753906 112.433594 C 232.574219 110.625 232.351562 108.820312 232.082031 107.023438 C 231.816406 105.226562 231.503906 103.433594 231.148438 101.652344 C 230.792969 99.871094 230.390625 98.097656 229.949219 96.332031 C 229.507812 94.570312 229.019531 92.820312 228.492188 91.078125 C 227.964844 89.339844 227.390625 87.613281 226.777344 85.902344 C 226.164062 84.191406 225.511719 82.496094 224.8125 80.816406 C 224.117188 79.136719 223.378906 77.476562 222.601562 75.832031 C 221.824219 74.191406 221.007812 72.566406 220.148438 70.964844 C 219.289062 69.359375 218.394531 67.777344 217.460938 66.21875 C 216.523438 64.660156 215.550781 63.125 214.539062 61.613281 C 213.53125 60.101562 212.484375 58.617188 211.398438 57.15625 C 210.316406 55.695312 209.199219 54.265625 208.046875 52.859375 C 206.890625 51.453125 205.703125 50.078125 204.484375 48.730469 C 203.261719 47.382812 202.007812 46.066406 200.722656 44.78125 C 199.4375 43.496094 198.121094 42.242188 196.773438 41.023438 C 195.425781 39.800781 194.050781 38.613281 192.644531 37.460938 C 191.242188 36.304688 189.808594 35.1875 188.347656 34.105469 C 186.886719 33.019531 185.402344 31.972656 183.890625 30.964844 C 182.378906 29.953125 180.84375 28.980469 179.285156 28.046875 C 177.726562 27.109375 176.144531 26.214844 174.542969 25.355469 C 172.9375 24.5 171.316406 23.679688 169.671875 22.902344 C 168.027344 22.125 166.367188 21.386719 164.6875 20.691406 C 163.007812 19.996094 161.3125 19.339844 159.601562 18.726562 C 157.890625 18.113281 156.164062 17.542969 154.425781 17.011719 C 152.6875 16.484375 150.933594 16 149.171875 15.554688 C 147.410156 15.113281 145.636719 14.714844 143.851562 14.359375 C 142.070312 14 140.277344 13.691406 138.480469 13.421875 C 136.683594 13.152344 134.878906 12.929688 133.070312 12.75 C 131.261719 12.570312 129.449219 12.433594 127.632812 12.34375 C 125.816406 12.253906 124 12.207031 122.183594 12.203125 Z M 177.53125 127.980469 L 92.867188 172.53125 C 92.09375 172.875 91.28125 173.050781 90.433594 173.0625 C 89.445312 173.082031 88.527344 172.835938 87.683594 172.320312 C 86.890625 171.839844 86.265625 171.191406 85.8125 170.378906 C 85.359375 169.570312 85.136719 168.699219 85.140625 167.769531 L 85.140625 78.875 C 85.136719 77.945312 85.359375 77.078125 85.8125 76.265625 C 86.265625 75.457031 86.890625 74.808594 87.683594 74.324219 C 88.488281 73.871094 89.351562 73.648438 90.273438 73.648438 C 91.199219 73.648438 92.0625 73.871094 92.867188 74.324219 L 177.53125 118.878906 C 177.964844 119.09375 178.363281 119.359375 178.722656 119.6875 C 179.082031 120.011719 179.390625 120.378906 179.648438 120.792969 C 179.902344 121.203125 180.097656 121.640625 180.234375 122.109375 C 180.367188 122.574219 180.433594 123.050781 180.433594 123.535156 C 180.433594 124.019531 180.367188 124.496094 180.234375 124.960938 C 180.097656 125.429688 179.902344 125.867188 179.648438 126.277344 C 179.390625 126.691406 179.082031 127.058594 178.722656 127.382812 C 178.363281 127.707031 177.964844 127.976562 177.53125 128.191406 Z M 177.53125 127.980469 " fill-opacity="1" fill-rule="nonzero"/></g><g clip-path="url(#75fe11b62e)"><path fill="#2c2c2c" d="M 207.332031 265.632812 L 207.332031 354.683594 C 207.332031 355.195312 207.285156 355.699219 207.183594 356.203125 C 207.082031 356.703125 206.9375 357.191406 206.738281 357.664062 C 206.542969 358.136719 206.304688 358.585938 206.019531 359.011719 C 205.734375 359.4375 205.414062 359.828125 205.050781 360.191406 C 204.691406 360.554688 204.296875 360.875 203.871094 361.160156 C 203.445312 361.445312 202.996094 361.683594 202.523438 361.878906 C 202.050781 362.074219 201.5625 362.222656 201.0625 362.324219 C 200.5625 362.421875 200.054688 362.472656 199.542969 362.472656 L 152.796875 362.472656 C 152.285156 362.472656 151.78125 362.421875 151.277344 362.324219 C 150.777344 362.222656 150.289062 362.074219 149.816406 361.878906 C 149.34375 361.683594 148.894531 361.445312 148.46875 361.160156 C 148.042969 360.875 147.652344 360.554688 147.289062 360.191406 C 146.925781 359.828125 146.605469 359.4375 146.320312 359.011719 C 146.035156 358.585938 145.796875 358.136719 145.601562 357.664062 C 145.40625 357.191406 145.257812 356.703125 145.15625 356.203125 C 145.058594 355.699219 145.007812 355.195312 145.007812 354.683594 L 145.007812 265.632812 C 145.007812 265.121094 145.058594 264.617188 145.15625 264.113281 C 145.257812 263.613281 145.40625 263.125 145.601562 262.652344 C 145.796875 262.179688 146.035156 261.730469 146.320312 261.304688 C 146.605469 260.878906 146.925781 260.488281 147.289062 260.125 C 147.652344 259.761719 148.042969 259.441406 148.46875 259.15625 C 148.894531 258.871094 149.34375 258.632812 149.816406 258.4375 C 150.289062 258.242188 150.777344 258.09375 151.277344 257.992188 C 151.78125 257.894531 152.285156 257.84375 152.796875 257.84375 L 199.542969 257.84375 C 200.054688 257.84375 200.5625 257.894531 201.0625 257.992188 C 201.5625 258.09375 202.050781 258.242188 202.523438 258.4375 C 202.996094 258.632812 203.445312 258.871094 203.871094 259.15625 C 204.296875 259.441406 204.691406 259.761719 205.050781 260.125 C 205.414062 260.488281 205.734375 260.878906 206.019531 261.304688 C 206.304688 261.730469 206.542969 262.179688 206.738281 262.652344 C 206.9375 263.125 207.082031 263.613281 207.183594 264.113281 C 207.285156 264.617188 207.332031 265.121094 207.332031 265.632812 Z M 277.449219 204.398438 L 230.707031 204.398438 C 230.195312 204.398438 229.6875 204.449219 229.183594 204.546875 C 228.683594 204.648438 228.195312 204.796875 227.722656 204.992188 C 227.25 205.1875 226.800781 205.425781 226.378906 205.710938 C 225.953125 205.996094 225.558594 206.320312 225.195312 206.679688 C 224.835938 207.042969 224.511719 207.4375 224.226562 207.859375 C 223.945312 208.285156 223.703125 208.734375 223.507812 209.207031 C 223.3125 209.679688 223.164062 210.167969 223.0625 210.667969 C 222.964844 211.171875 222.914062 211.679688 222.914062 212.191406 L 222.914062 354.683594 C 222.914062 355.195312 222.964844 355.699219 223.0625 356.203125 C 223.164062 356.703125 223.3125 357.191406 223.507812 357.664062 C 223.703125 358.136719 223.945312 358.585938 224.226562 359.011719 C 224.511719 359.4375 224.835938 359.828125 225.195312 360.191406 C 225.558594 360.554688 225.953125 360.875 226.378906 361.160156 C 226.800781 361.445312 227.25 361.683594 227.722656 361.878906 C 228.195312 362.074219 228.683594 362.222656 229.183594 362.324219 C 229.6875 362.421875 230.195312 362.472656 230.707031 362.472656 L 277.449219 362.472656 C 277.960938 362.472656 278.46875 362.421875 278.96875 362.324219 C 279.472656 362.222656 279.957031 362.074219 280.429688 361.878906 C 280.902344 361.683594 281.351562 361.445312 281.777344 361.160156 C 282.203125 360.875 282.597656 360.554688 282.957031 360.191406 C 283.320312 359.828125 283.644531 359.4375 283.929688 359.011719 C 284.210938 358.585938 284.453125 358.136719 284.648438 357.664062 C 284.84375 357.191406 284.992188 356.703125 285.089844 356.203125 C 285.191406 355.699219 285.242188 355.195312 285.242188 354.683594 L 285.242188 212.191406 C 285.242188 211.679688 285.191406 211.171875 285.089844 210.667969 C 284.992188 210.167969 284.84375 209.679688 284.648438 209.207031 C 284.453125 208.734375 284.210938 208.285156 283.929688 207.859375 C 283.644531 207.4375 283.320312 207.042969 282.957031 206.679688 C 282.597656 206.320312 282.203125 205.996094 281.777344 205.710938 C 281.351562 205.425781 280.902344 205.1875 280.429688 204.992188 C 279.957031 204.796875 279.472656 204.648438 278.96875 204.546875 C 278.46875 204.449219 277.960938 204.398438 277.449219 204.398438 Z M 355.359375 167.703125 L 308.613281 167.703125 C 308.042969 167.769531 307.488281 167.886719 306.941406 168.058594 C 306.394531 168.230469 305.871094 168.453125 305.371094 168.726562 C 304.867188 169 304.394531 169.320312 303.957031 169.6875 C 303.515625 170.050781 303.117188 170.457031 302.753906 170.898438 C 302.394531 171.34375 302.078125 171.820312 301.8125 172.324219 C 301.542969 172.828125 301.324219 173.355469 301.160156 173.902344 C 300.996094 174.449219 300.882812 175.007812 300.828125 175.578125 C 300.769531 176.148438 300.769531 176.71875 300.824219 177.285156 L 300.824219 352.890625 C 300.769531 353.460938 300.769531 354.03125 300.828125 354.597656 C 300.882812 355.167969 300.996094 355.726562 301.160156 356.273438 C 301.324219 356.820312 301.542969 357.347656 301.8125 357.855469 C 302.078125 358.359375 302.394531 358.832031 302.753906 359.277344 C 303.117188 359.722656 303.515625 360.125 303.957031 360.492188 C 304.398438 360.859375 304.867188 361.179688 305.371094 361.453125 C 305.871094 361.726562 306.394531 361.949219 306.941406 362.121094 C 307.488281 362.292969 308.042969 362.410156 308.613281 362.472656 L 355.359375 362.472656 C 355.925781 362.410156 356.484375 362.292969 357.027344 362.121094 C 357.574219 361.949219 358.097656 361.726562 358.601562 361.453125 C 359.101562 361.179688 359.574219 360.859375 360.015625 360.492188 C 360.453125 360.125 360.855469 359.722656 361.214844 359.277344 C 361.574219 358.832031 361.890625 358.359375 362.160156 357.855469 C 362.425781 357.347656 362.644531 356.820312 362.808594 356.273438 C 362.976562 355.726562 363.085938 355.167969 363.144531 354.597656 C 363.199219 354.03125 363.203125 353.460938 363.148438 352.890625 L 363.148438 177.285156 C 363.203125 176.71875 363.199219 176.148438 363.144531 175.578125 C 363.085938 175.007812 362.976562 174.449219 362.808594 173.902344 C 362.644531 173.355469 362.425781 172.828125 362.160156 172.324219 C 361.890625 171.820312 361.574219 171.34375 361.214844 170.898438 C 360.855469 170.457031 360.453125 170.050781 360.015625 169.6875 C 359.574219 169.320312 359.101562 169 358.601562 168.726562 C 358.097656 168.453125 357.574219 168.230469 357.027344 168.058594 C 356.484375 167.886719 355.925781 167.769531 355.359375 167.703125 Z M 355.359375 167.703125 " fill-opacity="1" fill-rule="nonzero"/></g></svg>