<svg xmlns="http://www.w3.org/2000/svg" xmlns:xlink="http://www.w3.org/1999/xlink" width="500" zoomAndPan="magnify" viewBox="0 0 375 374.999991" height="500" preserveAspectRatio="xMidYMid meet" version="1.0"><defs><clipPath id="1da2419e8a"><path d="M 35.199219 31.09375 L 339.699219 31.09375 L 339.699219 343.84375 L 35.199219 343.84375 Z M 35.199219 31.09375 " clip-rule="nonzero"/></clipPath></defs><g clip-path="url(#1da2419e8a)"><path fill="#000000" d="M 313.179688 31.671875 C 312.820312 31.738281 312.46875 31.824219 312.125 31.9375 C 311.652344 32.042969 311.191406 32.1875 310.746094 32.371094 C 310.296875 32.558594 309.867188 32.78125 309.460938 33.039062 C 309.050781 33.296875 308.667969 33.589844 308.308594 33.914062 C 307.949219 34.238281 307.621094 34.59375 307.320312 34.972656 C 307.023438 35.355469 306.761719 35.757812 306.53125 36.1875 C 306.304688 36.613281 306.113281 37.054688 305.960938 37.515625 C 305.808594 37.976562 305.699219 38.445312 305.625 38.921875 C 305.554688 39.402344 305.523438 39.882812 305.535156 40.367188 L 305.535156 96.753906 C 303.808594 94.601562 302.105469 92.46875 300.265625 90.429688 C 272.5 59.648438 232.175781 40.367188 187.496094 40.367188 C 103.769531 40.367188 35.730469 108.40625 35.730469 192.136719 C 35.730469 275.863281 103.769531 343.902344 187.496094 343.902344 C 271.222656 343.902344 339.261719 275.863281 339.261719 192.136719 C 339.269531 191.578125 339.222656 191.023438 339.121094 190.472656 C 339.019531 189.925781 338.863281 189.390625 338.65625 188.871094 C 338.445312 188.351562 338.191406 187.859375 337.882812 187.394531 C 337.578125 186.925781 337.226562 186.492188 336.835938 186.097656 C 336.445312 185.699219 336.015625 185.34375 335.554688 185.03125 C 335.089844 184.71875 334.601562 184.453125 334.085938 184.238281 C 333.570312 184.023438 333.039062 183.859375 332.492188 183.75 C 331.941406 183.640625 331.390625 183.582031 330.832031 183.582031 C 330.273438 183.582031 329.71875 183.640625 329.171875 183.75 C 328.625 183.859375 328.09375 184.023438 327.578125 184.238281 C 327.0625 184.453125 326.574219 184.71875 326.109375 185.03125 C 325.648438 185.34375 325.21875 185.699219 324.828125 186.097656 C 324.433594 186.492188 324.085938 186.925781 323.777344 187.394531 C 323.472656 187.859375 323.214844 188.351562 323.007812 188.871094 C 322.800781 189.390625 322.644531 189.925781 322.542969 190.472656 C 322.4375 191.023438 322.390625 191.578125 322.398438 192.136719 C 322.398438 266.75 262.113281 327.039062 187.496094 327.039062 C 112.878906 327.039062 52.59375 266.75 52.59375 192.136719 C 52.59375 117.519531 112.878906 57.230469 187.496094 57.230469 C 227.316406 57.230469 262.925781 74.382812 287.621094 101.761719 C 289.367188 103.699219 290.976562 105.753906 292.625 107.820312 L 238.085938 107.820312 C 237.527344 107.8125 236.972656 107.859375 236.421875 107.960938 C 235.875 108.0625 235.339844 108.21875 234.820312 108.425781 C 234.304688 108.636719 233.808594 108.894531 233.34375 109.199219 C 232.875 109.503906 232.441406 109.855469 232.046875 110.246094 C 231.648438 110.640625 231.292969 111.066406 230.980469 111.53125 C 230.667969 111.992188 230.402344 112.480469 230.1875 112.996094 C 229.972656 113.511719 229.808594 114.042969 229.699219 114.589844 C 229.589844 115.140625 229.535156 115.691406 229.535156 116.25 C 229.535156 116.808594 229.589844 117.363281 229.699219 117.910156 C 229.808594 118.457031 229.972656 118.992188 230.1875 119.503906 C 230.402344 120.019531 230.667969 120.511719 230.980469 120.972656 C 231.292969 121.4375 231.648438 121.863281 232.046875 122.257812 C 232.441406 122.648438 232.875 122.996094 233.34375 123.304688 C 233.808594 123.609375 234.304688 123.867188 234.820312 124.074219 C 235.339844 124.285156 235.875 124.4375 236.421875 124.542969 C 236.972656 124.644531 237.527344 124.691406 238.085938 124.683594 L 322.398438 124.683594 L 322.398438 40.367188 C 322.421875 39.769531 322.378906 39.171875 322.273438 38.582031 C 322.167969 37.992188 322 37.417969 321.773438 36.863281 C 321.546875 36.308594 321.261719 35.785156 320.921875 35.292969 C 320.582031 34.796875 320.195312 34.34375 319.757812 33.933594 C 319.320312 33.519531 318.847656 33.160156 318.332031 32.851562 C 317.820312 32.539062 317.277344 32.289062 316.710938 32.09375 C 316.144531 31.898438 315.5625 31.765625 314.96875 31.695312 C 314.371094 31.625 313.773438 31.617188 313.179688 31.671875 Z M 313.179688 31.671875 " fill-opacity="1" fill-rule="nonzero"/></g></svg>